<svg width="187" height="82" viewBox="0 0 187 82" fill="none" xmlns="http://www.w3.org/2000/svg">
<path d="M11.6847 49.8738V3.20618H0V0H27.0031V3.20618H15.2471V49.8738H11.6847Z" fill="#375D49"/>
<path d="M29.808 49.8738V0H35.2228V21.7307H51.61V0H57.0248V49.8738H51.61V26.4331H35.2228V49.8738H29.808Z" fill="#375D49"/>
<path d="M61.0487 49.8738V0H76.1533C85.1306 0 90.6168 5.12988 90.6168 13.3234C90.6168 18.7383 88.2656 22.942 83.9907 25.1507C88.2656 26.6469 89.3343 30.3518 89.3343 35.2679C89.4055 40.8253 89.4768 45.7414 91.1867 49.8738H83.3494C81.8532 47.0952 81.782 43.1765 81.7107 34.5554C81.7107 30.2805 79.9295 28.3568 76.2958 28.3568H68.7435V49.8738H61.0487ZM75.7259 6.55485H68.7435V22.0157H75.7259C80.1433 22.0157 83.0644 19.3083 83.0644 14.2497C83.0644 9.19104 80.1433 6.55485 75.7259 6.55485Z" fill="#375D49"/>
<path d="M93.8185 49.8738V0H104.577V49.8738H93.8185Z" fill="#375D49"/>
<path d="M148.828 0L136.359 49.8738H118.832L106.364 0H120.756L124.39 17.3846L127.952 34.7692L135.077 0H148.828Z" fill="#375D49"/>
<path d="M150.167 49.8738V0H186.29V12.1835H167.765V18.7383H181.801V30.5655H167.765V38.0466H186.29V49.8738H150.167Z" fill="#375D49"/>
<path d="M58.7 73V55.5H63.275C66.125 55.5 67.95 57.125 67.95 59.925C67.95 61.725 67.1 63.15 65.575 63.825C67.3 64.475 68.3 66 68.3 68.175C68.3 71.125 66.45 73 63.375 73H58.7ZM63.2 57.15H60.6V63.05H63.2C64.925 63.05 66.075 62.025 66.075 60.05C66.075 58.15 64.925 57.15 63.2 57.15ZM63.3 64.675H60.6V71.35H63.3C65.25 71.35 66.4 70.125 66.4 68.05C66.4 65.925 65.25 64.675 63.3 64.675ZM72.2889 73V66.25L67.6889 55.5H69.7639L73.3139 64.05L76.8389 55.5H78.7889L74.1889 66.25V73H72.2889Z" fill="#D59200"/>
<path d="M87.8141 73.225C84.6891 73.225 82.9391 71.125 82.7391 67.125H84.5391C84.7391 70.175 85.7641 71.6 87.7391 71.6C89.4141 71.6 90.4141 70.475 90.4141 68.925C90.4141 66.925 88.7641 65.875 87.0391 64.775C85.0641 63.55 82.9391 62.25 82.9391 59.45C82.9391 56.95 84.6141 55.275 87.1891 55.275C90.1391 55.275 91.9141 57.3 92.1391 61.175H90.3891C90.1641 58.3 89.0891 56.9 87.2141 56.9C85.7141 56.9 84.7891 57.925 84.7891 59.325C84.7891 61.225 86.4641 62.2 88.2141 63.3C90.1641 64.525 92.2391 65.875 92.2391 68.75C92.2391 71.45 90.5141 73.225 87.8141 73.225ZM93.3686 73V55.5H95.2686V73H93.3686ZM96.6883 73V55.5H100.088C104.113 55.5 106.738 58.425 106.738 64.275C106.738 70.075 104.063 73 100.013 73H96.6883ZM100.013 57.175H98.5883V71.35H100.013C102.988 71.35 104.838 69.15 104.838 64.275C104.838 59.35 102.988 57.175 100.013 57.175ZM107.87 73V55.5H111.27C115.295 55.5 117.92 58.425 117.92 64.275C117.92 70.075 115.245 73 111.195 73H107.87ZM111.195 57.175H109.77V71.35H111.195C114.17 71.35 116.02 69.15 116.02 64.275C116.02 59.35 114.17 57.175 111.195 57.175ZM119.052 73V55.5H120.952V63.125H126.702V55.5H128.602V73H126.702V64.775H120.952V73H119.052ZM129.263 73L133.588 55.5H136.013L140.363 73H138.388L137.313 68.525H132.188L131.138 73H129.263ZM132.963 65.275L132.563 66.95H136.938L136.538 65.275L134.763 57.525L132.963 65.275ZM141.024 73V55.5H143.299L146.099 62.8L148.874 70.175L148.824 62.8L148.799 55.5H150.449V73H148.174L145.374 65.725L142.624 58.4L142.649 65.725L142.699 73H141.024ZM151.84 73V55.5H154.115L156.915 62.8L159.69 70.175L159.64 62.8L159.615 55.5H161.265V73H158.99L156.19 65.725L153.44 58.4L153.465 65.725L153.515 73H151.84ZM161.905 73L166.23 55.5H168.655L173.005 73H171.03L169.955 68.525H164.83L163.78 73H161.905ZM165.605 65.275L165.205 66.95H169.58L169.18 65.275L167.405 57.525L165.605 65.275ZM173.666 73V55.5H176.591L178.066 62.65L179.541 70.05L181.016 62.65L182.491 55.5H185.391V73H183.641L183.691 64.25L183.741 57.075L182.316 64.25L180.466 73H178.591L176.741 64.25L175.266 57.025L175.366 73H173.666Z" fill="#138B47"/>
</svg>
