<svg width="32" height="9" viewBox="0 0 32 9" fill="none" xmlns="http://www.w3.org/2000/svg">
<path d="M1.968 8.4V0.54H0V0H4.548V0.54H2.568V8.4H1.968Z" fill="white"/>
<path d="M5.02041 8.4V0H5.93241V3.66H8.69241V0H9.60441V8.4H8.69241V4.452H5.93241V8.4H5.02041Z" fill="white"/>
<path d="M10.2821 8.4V0H12.8261C14.3381 0 15.2621 0.864 15.2621 2.244C15.2621 3.156 14.8661 3.864 14.1461 4.236C14.8661 4.488 15.0461 5.112 15.0461 5.94C15.0581 6.876 15.0701 7.704 15.3581 8.4H14.0381C13.7861 7.932 13.7741 7.272 13.7621 5.82C13.7621 5.1 13.4621 4.776 12.8501 4.776H11.5781V8.4H10.2821ZM12.7541 1.104H11.5781V3.708H12.7541C13.4981 3.708 13.9901 3.252 13.9901 2.4C13.9901 1.548 13.4981 1.104 12.7541 1.104Z" fill="white"/>
<path d="M15.8014 8.4V0H17.6134V8.4H15.8014Z" fill="white"/>
<path d="M25.0663 0L22.9663 8.4H20.0143L17.9143 0H20.3383L20.9503 2.928L21.5503 5.856L22.7503 0H25.0663Z" fill="white"/>
<path d="M25.2919 8.4V0H31.3759V2.052H28.2559V3.156H30.6199V5.148H28.2559V6.408H31.3759V8.4H25.2919Z" fill="white"/>
</svg>
