<svg width="32" height="9" viewBox="0 0 32 9" fill="none" xmlns="http://www.w3.org/2000/svg">
<path d="M2.1 9.0001V1.1401H0.132V0.600098H4.68V1.1401H2.7V9.0001H2.1Z" fill="black"/>
<path d="M5.15241 9.0001V0.600098H6.06441V4.2601H8.82441V0.600098H9.73641V9.0001H8.82441V5.0521H6.06441V9.0001H5.15241Z" fill="black"/>
<path d="M10.4141 9.0001V0.600098H12.9581C14.4701 0.600098 15.3941 1.4641 15.3941 2.8441C15.3941 3.7561 14.9981 4.4641 14.2781 4.8361C14.9981 5.0881 15.1781 5.7121 15.1781 6.5401C15.1901 7.4761 15.2021 8.3041 15.4901 9.0001H14.1701C13.9181 8.5321 13.9061 7.8721 13.8941 6.4201C13.8941 5.7001 13.5941 5.3761 12.9821 5.3761H11.7101V9.0001H10.4141ZM12.8861 1.7041H11.7101V4.3081H12.8861C13.6301 4.3081 14.1221 3.8521 14.1221 3.0001C14.1221 2.1481 13.6301 1.7041 12.8861 1.7041Z" fill="black"/>
<path d="M15.9334 9.0001V0.600098H17.7454V9.0001H15.9334Z" fill="black"/>
<path d="M25.1983 0.600098L23.0983 9.0001H20.1463L18.0463 0.600098H20.4703L21.0823 3.5281L21.6823 6.4561L22.8823 0.600098H25.1983Z" fill="black"/>
<path d="M25.4239 9.0001V0.600098H31.5079V2.6521H28.3879V3.7561H30.7519V5.7481H28.3879V7.0081H31.5079V9.0001H25.4239Z" fill="black"/>
</svg>
